<?xml version="1.0" standalone="no"?>
<!DOCTYPE svg PUBLIC "-//W3C//DTD SVG 20010904//EN"
 "http://www.w3.org/TR/2001/REC-SVG-20010904/DTD/svg10.dtd">
<svg version="1.0" xmlns="http://www.w3.org/2000/svg"
 width="700.000000pt" height="700.000000pt" viewBox="0 0 700.000000 700.000000"
 preserveAspectRatio="xMidYMid meet">
<metadata>
Created by potrace 1.14, written by Peter Selinger 2001-2017
</metadata>
<g transform="translate(0.000000,700.000000) scale(0.100000,-0.100000)"
fill="#000000" stroke="none">
<path d="M667 6854 c-1 -1 -31 -4 -67 -7 -394 -35 -675 -441 -564 -817 54
-185 211 -355 395 -428 108 -44 173 -48 716 -47 282 0 513 -2 513 -4 0 -3 -12
-39 -26 -80 -47 -137 -47 -271 2 -419 13 -41 24 -76 24 -77 0 -2 -75 -3 -167
-4 -93 0 -181 -3 -198 -6 -273 -50 -481 -243 -541 -502 -45 -193 5 -394 136
-551 46 -56 50 -63 36 -77 -148 -149 -214 -362 -176 -575 15 -84 87 -231 144
-295 25 -27 45 -52 45 -55 0 -3 -19 -26 -43 -52 -128 -137 -185 -351 -146
-543 15 -76 88 -229 132 -277 66 -71 65 -62 14 -119 -72 -80 -130 -197 -151
-305 -9 -50 -7 -168 5 -233 49 -272 289 -490 580 -525 19 -3 395 -5 836 -5
l801 -1 40 -37 c198 -187 366 -306 591 -418 48 -24 112 -53 142 -65 30 -12 69
-28 85 -35 99 -41 345 -106 460 -120 28 -4 61 -8 75 -10 109 -18 330 -23 489
-11 52 4 97 9 100 10 3 2 35 7 70 10 36 4 68 9 72 12 4 2 27 7 51 10 63 9 236
59 347 101 659 247 1183 787 1392 1438 22 66 59 206 65 245 2 14 6 34 9 45 4
21 9 58 24 180 9 74 7 385 -4 470 -3 28 -13 86 -21 130 -9 44 -18 91 -20 105
-12 66 -81 278 -116 360 -268 617 -767 1076 -1403 1290 -60 20 -110 41 -112
46 -2 5 66 9 155 9 167 -1 253 11 346 45 57 22 154 82 210 130 86 75 173 230
196 350 59 310 -106 604 -407 725 -117 48 -156 50 -736 49 -452 -1 -497 1
-491 15 111 262 64 532 -126 721 -109 109 -230 173 -372 196 -33 5 -3404 13
-3411 8z m3413 -379 c66 -27 122 -76 155 -136 26 -47 30 -64 30 -134 0 -71 -4
-86 -31 -135 -18 -31 -51 -70 -78 -91 -93 -70 43 -66 -1846 -64 l-1705 1 -58
28 c-242 119 -216 456 42 536 42 13 261 15 1747 14 1622 -1 1701 -1 1744 -19z
m1550 -929 c118 -27 217 -143 224 -264 7 -120 -52 -220 -162 -274 l-67 -33
-1715 0 -1715 0 -59 29 c-109 54 -168 143 -170 256 -1 138 96 258 230 285 61
12 3380 13 3434 1z m-1585 -936 c6 0 -33 -14 -85 -29 -315 -93 -647 -281 -900
-511 l-45 -41 -840 3 -840 3 -68 33 c-106 52 -160 138 -160 252 0 144 101 264
242 288 34 6 2659 8 2696 2z m815 -294 c405 -49 726 -179 1030 -415 76 -59
233 -208 285 -272 332 -403 484 -881 440 -1391 -14 -164 -81 -422 -148 -568
-14 -30 -28 -62 -31 -70 -3 -8 -20 -40 -37 -70 -281 -502 -748 -852 -1299
-975 -237 -52 -519 -65 -715 -32 -16 3 -50 8 -75 12 -74 11 -232 53 -326 86
-401 142 -755 418 -989 773 -149 227 -258 522 -292 791 -10 76 -10 371 -1 450
60 508 334 978 753 1290 61 45 138 98 171 118 166 99 423 202 594 236 30 6 66
14 80 16 33 7 82 13 155 21 33 4 61 7 62 8 6 5 295 -2 343 -8z m-2156 -647 c2
-2 -18 -40 -46 -84 -61 -97 -165 -312 -203 -418 l-28 -78 -551 3 -551 3 -49
24 c-27 14 -67 43 -89 65 -111 113 -108 298 8 405 53 49 102 71 175 80 59 6
1327 7 1334 0z m-389 -938 l30 -1 -10 -97 c-11 -100 -12 -379 -1 -446 l6 -38
-507 3 c-495 3 -509 4 -554 24 -181 84 -229 309 -99 458 40 45 117 86 179 95
34 5 794 6 956 2z m105 -956 c0 -25 84 -242 128 -330 22 -44 60 -115 85 -158
l46 -78 -677 3 c-669 3 -678 3 -723 24 -181 84 -230 309 -99 458 32 36 88 71
140 87 14 4 267 8 563 8 477 1 537 -1 537 -14z"/>
<path d="M4608 3705 c-90 -23 -145 -86 -155 -177 l-5 -53 -62 -24 c-199 -77
-355 -241 -410 -432 -77 -264 56 -559 314 -701 101 -55 200 -84 325 -93 115
-8 143 -14 194 -40 89 -45 141 -125 137 -210 -3 -64 -24 -103 -81 -153 -115
-101 -312 -101 -422 0 -53 50 -71 86 -82 164 -15 100 -48 147 -131 181 -89 38
-193 3 -245 -82 -26 -43 -30 -57 -29 -119 1 -81 23 -163 65 -251 45 -93 130
-186 229 -250 67 -43 158 -85 183 -85 10 0 16 -17 20 -52 13 -104 97 -179 199
-179 63 0 93 10 136 46 40 34 61 72 68 128 3 23 9 44 12 48 4 3 34 16 67 29
242 95 410 316 419 554 7 179 -49 321 -179 452 -142 144 -283 202 -525 218
-103 7 -162 31 -222 91 -95 96 -80 242 33 325 109 79 278 79 386 1 57 -41 82
-81 94 -148 18 -98 31 -131 62 -163 41 -42 78 -60 134 -64 90 -7 179 48 207
129 31 93 -6 265 -85 390 -72 114 -220 230 -345 270 l-51 16 -6 57 c-13 126
-128 208 -249 177z"/>
</g>
</svg>
